Killing Them Softly (2012) DVDRip

Screens:
 
http://img824.imageshack.us/img824/3083/vlcsnap2012123123h12m39.png
 
http://img849.imageshack.us/img849/9808/vlcsnap2012123123h12m58.png
 
http://img542.imageshack.us/img542/8795/vlcsnap2012123123h13m12.png

[General]
Format: AVI
Format/Info: Audio Video Interleave
File size: 700 MiB
Duration: 1h 37mn
Overall bit rate: 1 005 Kbps

[Video]
Format: xvid
Codec ID: xvid
Duration: 1h 37mn
Bit rate: 865 Kbps
Width: 720 pixels
Height: 400 pixels
Display aspect ratio: 16:9
Frame rate: 23.976 fps
Bits/(Pixel*Frame): 0.125
Stream size: 601 MiB (86%)

[Audio]
Format: MPEG Audio
Format version: Version 1
Format profile: Layer 3
Mode: Joint stereo
Mode extension: MS Stereo
Codec ID: 55
Codec ID/Hint: MP3
Duration: 1h 37mn
Bit rate mode: Constant
Bit rate: 128 Kbps
Channel(s): 2 channels
Sampling rate: 48.0 KHz
Compression mode: Lossy
Stream size: 89.0 MiB (13%)
Alignment: Aligned on interleaves
Interleave, duration: 24 ms (0.58 video frame)